<svg xmlns="http://www.w3.org/2000/svg" width="83.009" height="68.001" viewBox="0 0 83.009 68.001">
  <g id="boitier" transform="translate(1.5 1.501)">
    <path id="Tracé_85" data-name="Tracé 85" d="M13.11,223.249l-.179,29.625a5.445,5.445,0,0,0,.84,2.694,4.242,4.242,0,0,0,1.662,1.508l30.735,12.606A19.854,19.854,0,0,0,52.28,271a19.634,19.634,0,0,0,6.934-.9l32.166-13.237a4.473,4.473,0,0,0,1.147-1.948,5.043,5.043,0,0,0,.194-1.6q.044-13.986.087-27.969a5.148,5.148,0,0,0-.184-2.867,4.146,4.146,0,0,0-1.781-2.176q-17.334-6.943-34.667-13.888a15.323,15.323,0,0,0-3.765-.381,15.53,15.53,0,0,0-4.961.946L16.079,220.371a3.608,3.608,0,0,0-1.938,1.085,4.62,4.62,0,0,0-1.031,1.793" transform="translate(-12.931 -206.024)" fill="#fff" stroke="#101041" stroke-width="3"/>
    <path id="Tracé_86" data-name="Tracé 86" d="M15.182,226.091a2.468,2.468,0,0,1-1.608-2.514c.035-1.175-.21-1.968.761-2.169,10.719-4.56,21.806-9.632,32.524-14.191a16.355,16.355,0,0,1,5.821-1.177,12.073,12.073,0,0,1,5.96,1.275c10.753,4.532,22.057,8.837,32.811,13.369a3.192,3.192,0,0,1,1.8,2.235c.229,1.034-.631,2.26-.738,2.58L59.18,239.229a17.623,17.623,0,0,1-6.634,1.069,17.807,17.807,0,0,1-6.526-1.5Q30.6,232.443,15.182,226.091" transform="translate(-13.57 -206.026)" fill="#fff" stroke="#101041" stroke-width="3"/>
  </g>
</svg>
